<mxfile host="app.diagrams.net" agent="Mozilla/5.0 (X11; Linux x86_64) AppleWebKit/537.36 (KHTML, like Gecko) Chrome/131.0.0.0 Safari/537.36" version="25.0.3">
  <diagram name="Page-1" id="bsk5EOdBDUUGITaOQMyh">
    <mxGraphModel dx="2509" dy="828" grid="1" gridSize="10" guides="1" tooltips="1" connect="1" arrows="1" fold="1" page="1" pageScale="1" pageWidth="850" pageHeight="1100" math="0" shadow="0">
      <root>
        <mxCell id="0" />
        <mxCell id="1" parent="0" />
        <mxCell id="K0krH6eupAGIVUQJ-Xq6-160" value="&amp;lt;&amp;lt;component&amp;gt;&amp;gt;&lt;div&gt;&lt;b&gt;ModBus1.SL&lt;/b&gt;&lt;/div&gt;" style="rounded=0;whiteSpace=wrap;html=1;verticalAlign=top;" parent="1" vertex="1">
          <mxGeometry x="320" y="270" width="590" height="440" as="geometry" />
        </mxCell>
        <mxCell id="K0krH6eupAGIVUQJ-Xq6-120" value="«component»&lt;br&gt;&lt;b&gt;ModBus1.TCP&lt;/b&gt;" style="rounded=0;whiteSpace=wrap;html=1;verticalAlign=top;" parent="1" vertex="1">
          <mxGeometry x="317.5" y="720" width="592.5" height="390" as="geometry" />
        </mxCell>
        <mxCell id="K0krH6eupAGIVUQJ-Xq6-5" value="&lt;font style=&quot;font-size: 20px;&quot;&gt;&lt;b&gt;MODBUS over Serial Line&lt;/b&gt;&lt;/font&gt;" style="rounded=0;whiteSpace=wrap;html=1;fillColor=none;align=left;verticalAlign=top;" parent="1" vertex="1">
          <mxGeometry x="1030" y="42" width="900" height="390" as="geometry" />
        </mxCell>
        <mxCell id="MXNzwc6T89K64HPELF2n-14" value="ISO/OSI Model" style="shape=table;startSize=30;container=1;collapsible=1;childLayout=tableLayout;fixedRows=1;rowLines=0;fontStyle=1;align=center;resizeLast=1;html=1;fillColor=default;" parent="1" vertex="1">
          <mxGeometry x="-50" y="140" width="180" height="270" as="geometry" />
        </mxCell>
        <mxCell id="MXNzwc6T89K64HPELF2n-15" value="" style="shape=tableRow;horizontal=0;startSize=0;swimlaneHead=0;swimlaneBody=0;fillColor=none;collapsible=0;dropTarget=0;points=[[0,0.5],[1,0.5]];portConstraint=eastwest;top=0;left=0;right=0;bottom=1;" parent="MXNzwc6T89K64HPELF2n-14" vertex="1">
          <mxGeometry y="30" width="180" height="30" as="geometry" />
        </mxCell>
        <mxCell id="MXNzwc6T89K64HPELF2n-16" value="Level" style="shape=partialRectangle;connectable=0;fillColor=none;top=0;left=0;bottom=0;right=0;fontStyle=1;overflow=hidden;whiteSpace=wrap;html=1;" parent="MXNzwc6T89K64HPELF2n-15" vertex="1">
          <mxGeometry width="40" height="30" as="geometry">
            <mxRectangle width="40" height="30" as="alternateBounds" />
          </mxGeometry>
        </mxCell>
        <mxCell id="MXNzwc6T89K64HPELF2n-17" value="Level Name" style="shape=partialRectangle;connectable=0;fillColor=none;top=0;left=0;bottom=0;right=0;align=center;spacingLeft=6;fontStyle=5;overflow=hidden;whiteSpace=wrap;html=1;" parent="MXNzwc6T89K64HPELF2n-15" vertex="1">
          <mxGeometry x="40" width="140" height="30" as="geometry">
            <mxRectangle width="140" height="30" as="alternateBounds" />
          </mxGeometry>
        </mxCell>
        <mxCell id="MXNzwc6T89K64HPELF2n-18" value="" style="shape=tableRow;horizontal=0;startSize=0;swimlaneHead=0;swimlaneBody=0;fillColor=none;collapsible=0;dropTarget=0;points=[[0,0.5],[1,0.5]];portConstraint=eastwest;top=0;left=0;right=0;bottom=0;" parent="MXNzwc6T89K64HPELF2n-14" vertex="1">
          <mxGeometry y="60" width="180" height="30" as="geometry" />
        </mxCell>
        <mxCell id="MXNzwc6T89K64HPELF2n-19" value="7" style="shape=partialRectangle;connectable=0;fillColor=none;top=0;left=0;bottom=0;right=0;editable=1;overflow=hidden;whiteSpace=wrap;html=1;" parent="MXNzwc6T89K64HPELF2n-18" vertex="1">
          <mxGeometry width="40" height="30" as="geometry">
            <mxRectangle width="40" height="30" as="alternateBounds" />
          </mxGeometry>
        </mxCell>
        <mxCell id="MXNzwc6T89K64HPELF2n-20" value="Application" style="shape=partialRectangle;connectable=0;fillColor=none;top=0;left=0;bottom=0;right=0;align=left;spacingLeft=6;overflow=hidden;whiteSpace=wrap;html=1;" parent="MXNzwc6T89K64HPELF2n-18" vertex="1">
          <mxGeometry x="40" width="140" height="30" as="geometry">
            <mxRectangle width="140" height="30" as="alternateBounds" />
          </mxGeometry>
        </mxCell>
        <mxCell id="MXNzwc6T89K64HPELF2n-21" value="" style="shape=tableRow;horizontal=0;startSize=0;swimlaneHead=0;swimlaneBody=0;fillColor=none;collapsible=0;dropTarget=0;points=[[0,0.5],[1,0.5]];portConstraint=eastwest;top=0;left=0;right=0;bottom=0;" parent="MXNzwc6T89K64HPELF2n-14" vertex="1">
          <mxGeometry y="90" width="180" height="30" as="geometry" />
        </mxCell>
        <mxCell id="MXNzwc6T89K64HPELF2n-22" value="6" style="shape=partialRectangle;connectable=0;fillColor=none;top=0;left=0;bottom=0;right=0;editable=1;overflow=hidden;whiteSpace=wrap;html=1;" parent="MXNzwc6T89K64HPELF2n-21" vertex="1">
          <mxGeometry width="40" height="30" as="geometry">
            <mxRectangle width="40" height="30" as="alternateBounds" />
          </mxGeometry>
        </mxCell>
        <mxCell id="MXNzwc6T89K64HPELF2n-23" value="Presentation" style="shape=partialRectangle;connectable=0;fillColor=none;top=0;left=0;bottom=0;right=0;align=left;spacingLeft=6;overflow=hidden;whiteSpace=wrap;html=1;" parent="MXNzwc6T89K64HPELF2n-21" vertex="1">
          <mxGeometry x="40" width="140" height="30" as="geometry">
            <mxRectangle width="140" height="30" as="alternateBounds" />
          </mxGeometry>
        </mxCell>
        <mxCell id="MXNzwc6T89K64HPELF2n-24" value="" style="shape=tableRow;horizontal=0;startSize=0;swimlaneHead=0;swimlaneBody=0;fillColor=none;collapsible=0;dropTarget=0;points=[[0,0.5],[1,0.5]];portConstraint=eastwest;top=0;left=0;right=0;bottom=0;" parent="MXNzwc6T89K64HPELF2n-14" vertex="1">
          <mxGeometry y="120" width="180" height="30" as="geometry" />
        </mxCell>
        <mxCell id="MXNzwc6T89K64HPELF2n-25" value="5" style="shape=partialRectangle;connectable=0;fillColor=none;top=0;left=0;bottom=0;right=0;editable=1;overflow=hidden;whiteSpace=wrap;html=1;" parent="MXNzwc6T89K64HPELF2n-24" vertex="1">
          <mxGeometry width="40" height="30" as="geometry">
            <mxRectangle width="40" height="30" as="alternateBounds" />
          </mxGeometry>
        </mxCell>
        <mxCell id="MXNzwc6T89K64HPELF2n-26" value="&lt;div&gt;Session&lt;/div&gt;" style="shape=partialRectangle;connectable=0;fillColor=none;top=0;left=0;bottom=0;right=0;align=left;spacingLeft=6;overflow=hidden;whiteSpace=wrap;html=1;" parent="MXNzwc6T89K64HPELF2n-24" vertex="1">
          <mxGeometry x="40" width="140" height="30" as="geometry">
            <mxRectangle width="140" height="30" as="alternateBounds" />
          </mxGeometry>
        </mxCell>
        <mxCell id="MXNzwc6T89K64HPELF2n-27" value="" style="shape=tableRow;horizontal=0;startSize=0;swimlaneHead=0;swimlaneBody=0;fillColor=none;collapsible=0;dropTarget=0;points=[[0,0.5],[1,0.5]];portConstraint=eastwest;top=0;left=0;right=0;bottom=0;" parent="MXNzwc6T89K64HPELF2n-14" vertex="1">
          <mxGeometry y="150" width="180" height="30" as="geometry" />
        </mxCell>
        <mxCell id="MXNzwc6T89K64HPELF2n-28" value="4" style="shape=partialRectangle;connectable=0;fillColor=#FFE6CC;top=0;left=0;bottom=0;right=0;editable=1;overflow=hidden;whiteSpace=wrap;html=1;gradientColor=none;opacity=50;" parent="MXNzwc6T89K64HPELF2n-27" vertex="1">
          <mxGeometry width="40" height="30" as="geometry">
            <mxRectangle width="40" height="30" as="alternateBounds" />
          </mxGeometry>
        </mxCell>
        <mxCell id="MXNzwc6T89K64HPELF2n-29" value="&lt;div&gt;Transport&lt;/div&gt;" style="shape=partialRectangle;connectable=0;fillColor=#FFE6CC;top=0;left=0;bottom=0;right=0;align=left;spacingLeft=6;overflow=hidden;whiteSpace=wrap;html=1;opacity=50;" parent="MXNzwc6T89K64HPELF2n-27" vertex="1">
          <mxGeometry x="40" width="140" height="30" as="geometry">
            <mxRectangle width="140" height="30" as="alternateBounds" />
          </mxGeometry>
        </mxCell>
        <mxCell id="MXNzwc6T89K64HPELF2n-30" value="" style="shape=tableRow;horizontal=0;startSize=0;swimlaneHead=0;swimlaneBody=0;fillColor=none;collapsible=0;dropTarget=0;points=[[0,0.5],[1,0.5]];portConstraint=eastwest;top=0;left=0;right=0;bottom=0;" parent="MXNzwc6T89K64HPELF2n-14" vertex="1">
          <mxGeometry y="180" width="180" height="30" as="geometry" />
        </mxCell>
        <mxCell id="MXNzwc6T89K64HPELF2n-31" value="3" style="shape=partialRectangle;connectable=0;fillColor=none;top=0;left=0;bottom=0;right=0;editable=1;overflow=hidden;whiteSpace=wrap;html=1;" parent="MXNzwc6T89K64HPELF2n-30" vertex="1">
          <mxGeometry width="40" height="30" as="geometry">
            <mxRectangle width="40" height="30" as="alternateBounds" />
          </mxGeometry>
        </mxCell>
        <mxCell id="MXNzwc6T89K64HPELF2n-32" value="&lt;div&gt;Network&lt;/div&gt;" style="shape=partialRectangle;connectable=0;fillColor=none;top=0;left=0;bottom=0;right=0;align=left;spacingLeft=6;overflow=hidden;whiteSpace=wrap;html=1;" parent="MXNzwc6T89K64HPELF2n-30" vertex="1">
          <mxGeometry x="40" width="140" height="30" as="geometry">
            <mxRectangle width="140" height="30" as="alternateBounds" />
          </mxGeometry>
        </mxCell>
        <mxCell id="MXNzwc6T89K64HPELF2n-33" value="" style="shape=tableRow;horizontal=0;startSize=0;swimlaneHead=0;swimlaneBody=0;fillColor=none;collapsible=0;dropTarget=0;points=[[0,0.5],[1,0.5]];portConstraint=eastwest;top=0;left=0;right=0;bottom=0;" parent="MXNzwc6T89K64HPELF2n-14" vertex="1">
          <mxGeometry y="210" width="180" height="30" as="geometry" />
        </mxCell>
        <mxCell id="MXNzwc6T89K64HPELF2n-34" value="2" style="shape=partialRectangle;connectable=0;fillColor=#FFE6CC;top=0;left=0;bottom=0;right=0;editable=1;overflow=hidden;whiteSpace=wrap;html=1;gradientColor=none;opacity=50;" parent="MXNzwc6T89K64HPELF2n-33" vertex="1">
          <mxGeometry width="40" height="30" as="geometry">
            <mxRectangle width="40" height="30" as="alternateBounds" />
          </mxGeometry>
        </mxCell>
        <mxCell id="MXNzwc6T89K64HPELF2n-35" value="&lt;div&gt;Data Link&lt;/div&gt;" style="shape=partialRectangle;connectable=0;fillColor=#FFE6CC;top=0;left=0;bottom=0;right=0;align=left;spacingLeft=6;overflow=hidden;whiteSpace=wrap;html=1;gradientColor=none;opacity=50;" parent="MXNzwc6T89K64HPELF2n-33" vertex="1">
          <mxGeometry x="40" width="140" height="30" as="geometry">
            <mxRectangle width="140" height="30" as="alternateBounds" />
          </mxGeometry>
        </mxCell>
        <mxCell id="MXNzwc6T89K64HPELF2n-36" value="" style="shape=tableRow;horizontal=0;startSize=0;swimlaneHead=0;swimlaneBody=0;fillColor=none;collapsible=0;dropTarget=0;points=[[0,0.5],[1,0.5]];portConstraint=eastwest;top=0;left=0;right=0;bottom=0;" parent="MXNzwc6T89K64HPELF2n-14" vertex="1">
          <mxGeometry y="240" width="180" height="30" as="geometry" />
        </mxCell>
        <mxCell id="MXNzwc6T89K64HPELF2n-37" value="1" style="shape=partialRectangle;connectable=0;fillColor=none;top=0;left=0;bottom=0;right=0;editable=1;overflow=hidden;whiteSpace=wrap;html=1;" parent="MXNzwc6T89K64HPELF2n-36" vertex="1">
          <mxGeometry width="40" height="30" as="geometry">
            <mxRectangle width="40" height="30" as="alternateBounds" />
          </mxGeometry>
        </mxCell>
        <mxCell id="MXNzwc6T89K64HPELF2n-38" value="&lt;div&gt;Physical&lt;/div&gt;" style="shape=partialRectangle;connectable=0;fillColor=none;top=0;left=0;bottom=0;right=0;align=left;spacingLeft=6;overflow=hidden;whiteSpace=wrap;html=1;" parent="MXNzwc6T89K64HPELF2n-36" vertex="1">
          <mxGeometry x="40" width="140" height="30" as="geometry">
            <mxRectangle width="140" height="30" as="alternateBounds" />
          </mxGeometry>
        </mxCell>
        <mxCell id="MXNzwc6T89K64HPELF2n-39" value="«component»&lt;br&gt;&lt;b&gt;ModBus1&lt;/b&gt;" style="html=1;whiteSpace=wrap;" parent="1" vertex="1">
          <mxGeometry x="540.75" y="156" width="110" height="50" as="geometry" />
        </mxCell>
        <mxCell id="MXNzwc6T89K64HPELF2n-41" value="" style="html=1;verticalAlign=bottom;labelBackgroundColor=none;endArrow=oval;endFill=0;endSize=8;rounded=0;" parent="1" edge="1">
          <mxGeometry width="160" relative="1" as="geometry">
            <mxPoint x="650.75" y="180.62" as="sourcePoint" />
            <mxPoint x="760.75" y="180.62" as="targetPoint" />
          </mxGeometry>
        </mxCell>
        <mxCell id="MXNzwc6T89K64HPELF2n-42" value="" style="html=1;verticalAlign=bottom;labelBackgroundColor=none;endArrow=halfCircle;endFill=0;endSize=2;rounded=0;" parent="1" edge="1">
          <mxGeometry width="160" relative="1" as="geometry">
            <mxPoint x="673" y="341" as="sourcePoint" />
            <mxPoint x="773" y="341" as="targetPoint" />
          </mxGeometry>
        </mxCell>
        <mxCell id="MXNzwc6T89K64HPELF2n-43" value="&lt;font style=&quot;font-size: 8px;&quot;&gt;EncodePDU&lt;/font&gt;" style="text;html=1;align=center;verticalAlign=middle;whiteSpace=wrap;rounded=0;" parent="1" vertex="1">
          <mxGeometry x="730.75" y="181" width="60" height="16" as="geometry" />
        </mxCell>
        <mxCell id="MXNzwc6T89K64HPELF2n-47" value="" style="html=1;verticalAlign=bottom;labelBackgroundColor=none;endArrow=oval;endFill=0;endSize=8;rounded=0;" parent="1" edge="1">
          <mxGeometry width="160" relative="1" as="geometry">
            <mxPoint x="540.7500000000002" y="181.30965517241373" as="sourcePoint" />
            <mxPoint x="430.7500000000002" y="181.30965517241373" as="targetPoint" />
          </mxGeometry>
        </mxCell>
        <mxCell id="MXNzwc6T89K64HPELF2n-50" value="&lt;font style=&quot;font-size: 8px;&quot;&gt;DecodePDU&lt;/font&gt;" style="text;html=1;align=center;verticalAlign=middle;whiteSpace=wrap;rounded=0;" parent="1" vertex="1">
          <mxGeometry x="400.75" y="181" width="60" height="16" as="geometry" />
        </mxCell>
        <mxCell id="MXNzwc6T89K64HPELF2n-51" value="«interface»&lt;br&gt;&lt;b&gt;ModBus1.TCPConnectionMgt&lt;/b&gt;" style="html=1;whiteSpace=wrap;" parent="1" vertex="1">
          <mxGeometry x="540.75" y="797" width="183" height="50" as="geometry" />
        </mxCell>
        <mxCell id="MXNzwc6T89K64HPELF2n-58" value="«component»&lt;br&gt;&lt;b&gt;ModBus1.SL&lt;/b&gt;" style="html=1;whiteSpace=wrap;" parent="1" vertex="1">
          <mxGeometry x="563" y="330" width="110" height="50" as="geometry" />
        </mxCell>
        <mxCell id="MXNzwc6T89K64HPELF2n-60" value="&lt;font style=&quot;font-size: 8px;&quot;&gt;EncodePDU&lt;/font&gt;" style="text;html=1;align=center;verticalAlign=middle;whiteSpace=wrap;rounded=0;" parent="1" vertex="1">
          <mxGeometry x="748" y="341" width="60" height="16" as="geometry" />
        </mxCell>
        <mxCell id="MXNzwc6T89K64HPELF2n-67" value="" style="html=1;verticalAlign=bottom;labelBackgroundColor=none;endArrow=halfCircle;endFill=0;endSize=2;rounded=0;" parent="1" edge="1">
          <mxGeometry width="160" relative="1" as="geometry">
            <mxPoint x="673" y="369" as="sourcePoint" />
            <mxPoint x="773" y="369" as="targetPoint" />
          </mxGeometry>
        </mxCell>
        <mxCell id="MXNzwc6T89K64HPELF2n-68" value="&lt;font style=&quot;font-size: 8px;&quot;&gt;DecodePDU&lt;/font&gt;" style="text;html=1;align=center;verticalAlign=middle;whiteSpace=wrap;rounded=0;" parent="1" vertex="1">
          <mxGeometry x="748" y="369" width="60" height="16" as="geometry" />
        </mxCell>
        <mxCell id="MXNzwc6T89K64HPELF2n-70" value="" style="html=1;verticalAlign=bottom;labelBackgroundColor=none;endArrow=halfCircle;endFill=0;endSize=2;rounded=0;" parent="1" edge="1">
          <mxGeometry width="160" relative="1" as="geometry">
            <mxPoint x="723.75" y="809" as="sourcePoint" />
            <mxPoint x="823.75" y="809" as="targetPoint" />
          </mxGeometry>
        </mxCell>
        <mxCell id="MXNzwc6T89K64HPELF2n-71" value="&lt;font style=&quot;font-size: 8px;&quot;&gt;EncodePDU&lt;/font&gt;" style="text;html=1;align=center;verticalAlign=middle;whiteSpace=wrap;rounded=0;" parent="1" vertex="1">
          <mxGeometry x="798.75" y="809" width="60" height="16" as="geometry" />
        </mxCell>
        <mxCell id="MXNzwc6T89K64HPELF2n-74" value="" style="html=1;verticalAlign=bottom;labelBackgroundColor=none;endArrow=halfCircle;endFill=0;endSize=2;rounded=0;" parent="1" edge="1">
          <mxGeometry width="160" relative="1" as="geometry">
            <mxPoint x="723.75" y="837" as="sourcePoint" />
            <mxPoint x="823.75" y="837" as="targetPoint" />
          </mxGeometry>
        </mxCell>
        <mxCell id="MXNzwc6T89K64HPELF2n-75" value="&lt;font style=&quot;font-size: 8px;&quot;&gt;DecodePDU&lt;/font&gt;" style="text;html=1;align=center;verticalAlign=middle;whiteSpace=wrap;rounded=0;" parent="1" vertex="1">
          <mxGeometry x="798.75" y="837" width="60" height="16" as="geometry" />
        </mxCell>
        <mxCell id="MXNzwc6T89K64HPELF2n-76" value="" style="html=1;verticalAlign=bottom;labelBackgroundColor=none;endArrow=oval;endFill=0;endSize=8;rounded=0;" parent="1" edge="1">
          <mxGeometry width="160" relative="1" as="geometry">
            <mxPoint x="563.0000000000002" y="341.3096551724137" as="sourcePoint" />
            <mxPoint x="453.0000000000002" y="341.3096551724137" as="targetPoint" />
          </mxGeometry>
        </mxCell>
        <mxCell id="MXNzwc6T89K64HPELF2n-77" value="&lt;font style=&quot;font-size: 8px;&quot;&gt;EmitMessage&lt;/font&gt;" style="text;html=1;align=center;verticalAlign=middle;whiteSpace=wrap;rounded=0;" parent="1" vertex="1">
          <mxGeometry x="423" y="341" width="60" height="16" as="geometry" />
        </mxCell>
        <mxCell id="MXNzwc6T89K64HPELF2n-78" value="" style="html=1;verticalAlign=bottom;labelBackgroundColor=none;endArrow=oval;endFill=0;endSize=8;rounded=0;" parent="1" edge="1">
          <mxGeometry width="160" relative="1" as="geometry">
            <mxPoint x="563.0000000000002" y="369.3096551724137" as="sourcePoint" />
            <mxPoint x="453.0000000000002" y="369.3096551724137" as="targetPoint" />
          </mxGeometry>
        </mxCell>
        <mxCell id="MXNzwc6T89K64HPELF2n-79" value="&lt;font style=&quot;font-size: 8px;&quot;&gt;RecvMessage&lt;/font&gt;" style="text;html=1;align=center;verticalAlign=middle;whiteSpace=wrap;rounded=0;" parent="1" vertex="1">
          <mxGeometry x="423" y="369" width="60" height="16" as="geometry" />
        </mxCell>
        <mxCell id="K0krH6eupAGIVUQJ-Xq6-1" value="MODBUS over TCP/IP" style="text;html=1;align=center;verticalAlign=middle;whiteSpace=wrap;rounded=0;strokeColor=default;" parent="1" vertex="1">
          <mxGeometry x="180" y="256" width="70" height="30" as="geometry" />
        </mxCell>
        <mxCell id="K0krH6eupAGIVUQJ-Xq6-4" style="edgeStyle=orthogonalEdgeStyle;rounded=0;orthogonalLoop=1;jettySize=auto;html=1;entryX=1;entryY=0.5;entryDx=0;entryDy=0;" parent="1" source="K0krH6eupAGIVUQJ-Xq6-2" target="MXNzwc6T89K64HPELF2n-33" edge="1">
          <mxGeometry relative="1" as="geometry" />
        </mxCell>
        <mxCell id="K0krH6eupAGIVUQJ-Xq6-2" value="MODBUS over Serial Line" style="text;html=1;align=center;verticalAlign=middle;whiteSpace=wrap;rounded=0;strokeColor=default;" parent="1" vertex="1">
          <mxGeometry x="170" y="396" width="90" height="30" as="geometry" />
        </mxCell>
        <mxCell id="K0krH6eupAGIVUQJ-Xq6-3" style="edgeStyle=orthogonalEdgeStyle;rounded=0;orthogonalLoop=1;jettySize=auto;html=1;entryX=0.988;entryY=0.638;entryDx=0;entryDy=0;entryPerimeter=0;" parent="1" source="K0krH6eupAGIVUQJ-Xq6-1" target="MXNzwc6T89K64HPELF2n-27" edge="1">
          <mxGeometry relative="1" as="geometry" />
        </mxCell>
        <mxCell id="K0krH6eupAGIVUQJ-Xq6-39" value="" style="group" parent="1" vertex="1" connectable="0">
          <mxGeometry x="1040" y="101" width="340" height="114" as="geometry" />
        </mxCell>
        <mxCell id="K0krH6eupAGIVUQJ-Xq6-38" value="RTU Frame Description" style="rounded=0;whiteSpace=wrap;html=1;align=left;verticalAlign=top;" parent="K0krH6eupAGIVUQJ-Xq6-39" vertex="1">
          <mxGeometry width="340" height="114" as="geometry" />
        </mxCell>
        <mxCell id="K0krH6eupAGIVUQJ-Xq6-26" value="Address" style="rounded=0;whiteSpace=wrap;html=1;fillColor=#CCCCFF;" parent="K0krH6eupAGIVUQJ-Xq6-39" vertex="1">
          <mxGeometry x="20" y="30" width="50" height="40" as="geometry" />
        </mxCell>
        <mxCell id="K0krH6eupAGIVUQJ-Xq6-27" value="Function" style="rounded=0;whiteSpace=wrap;html=1;fillColor=#CCCCFF;" parent="K0krH6eupAGIVUQJ-Xq6-39" vertex="1">
          <mxGeometry x="70" y="30" width="50" height="40" as="geometry" />
        </mxCell>
        <mxCell id="K0krH6eupAGIVUQJ-Xq6-28" value="Data" style="rounded=0;whiteSpace=wrap;html=1;fillColor=#FFFF00;" parent="K0krH6eupAGIVUQJ-Xq6-39" vertex="1">
          <mxGeometry x="120" y="30" width="130" height="40" as="geometry" />
        </mxCell>
        <mxCell id="K0krH6eupAGIVUQJ-Xq6-29" value="CRC" style="rounded=0;whiteSpace=wrap;html=1;fillColor=#00CC66;" parent="K0krH6eupAGIVUQJ-Xq6-39" vertex="1">
          <mxGeometry x="250" y="30" width="70" height="40" as="geometry" />
        </mxCell>
        <mxCell id="K0krH6eupAGIVUQJ-Xq6-30" value="1 byte" style="rounded=0;whiteSpace=wrap;html=1;" parent="K0krH6eupAGIVUQJ-Xq6-39" vertex="1">
          <mxGeometry x="20" y="70" width="50" height="30" as="geometry" />
        </mxCell>
        <mxCell id="K0krH6eupAGIVUQJ-Xq6-31" value="1 byte" style="rounded=0;whiteSpace=wrap;html=1;" parent="K0krH6eupAGIVUQJ-Xq6-39" vertex="1">
          <mxGeometry x="70" y="70" width="50" height="30" as="geometry" />
        </mxCell>
        <mxCell id="K0krH6eupAGIVUQJ-Xq6-32" value="0..252 byte(s)" style="rounded=0;whiteSpace=wrap;html=1;" parent="K0krH6eupAGIVUQJ-Xq6-39" vertex="1">
          <mxGeometry x="120" y="70" width="130" height="30" as="geometry" />
        </mxCell>
        <mxCell id="K0krH6eupAGIVUQJ-Xq6-33" value="2 bytes" style="rounded=0;whiteSpace=wrap;html=1;verticalAlign=top;" parent="K0krH6eupAGIVUQJ-Xq6-39" vertex="1">
          <mxGeometry x="250" y="70" width="70" height="30" as="geometry" />
        </mxCell>
        <mxCell id="K0krH6eupAGIVUQJ-Xq6-34" value="&lt;font style=&quot;font-size: 4px;&quot;&gt;CRC Low&lt;/font&gt;" style="text;html=1;align=center;verticalAlign=middle;whiteSpace=wrap;rounded=0;" parent="K0krH6eupAGIVUQJ-Xq6-39" vertex="1">
          <mxGeometry x="258" y="86" width="20" height="18" as="geometry" />
        </mxCell>
        <mxCell id="K0krH6eupAGIVUQJ-Xq6-35" value="&lt;font style=&quot;font-size: 4px;&quot;&gt;CRC Hi&lt;/font&gt;" style="text;html=1;align=center;verticalAlign=middle;whiteSpace=wrap;rounded=0;" parent="K0krH6eupAGIVUQJ-Xq6-39" vertex="1">
          <mxGeometry x="293" y="86" width="20" height="18" as="geometry" />
        </mxCell>
        <mxCell id="K0krH6eupAGIVUQJ-Xq6-37" value="" style="endArrow=none;html=1;rounded=0;endSize=11;" parent="K0krH6eupAGIVUQJ-Xq6-39" edge="1">
          <mxGeometry width="50" height="50" relative="1" as="geometry">
            <mxPoint x="285" y="100" as="sourcePoint" />
            <mxPoint x="285" y="95" as="targetPoint" />
          </mxGeometry>
        </mxCell>
        <mxCell id="K0krH6eupAGIVUQJ-Xq6-40" value="" style="group;align=center;verticalAlign=top;fontSize=8;spacingTop=0;" parent="1" vertex="1" connectable="0">
          <mxGeometry x="1440" y="97" width="480" height="160" as="geometry" />
        </mxCell>
        <mxCell id="K0krH6eupAGIVUQJ-Xq6-41" value="ASCII Message Frame" style="rounded=0;whiteSpace=wrap;html=1;align=left;verticalAlign=top;" parent="K0krH6eupAGIVUQJ-Xq6-40" vertex="1">
          <mxGeometry width="460" height="150" as="geometry" />
        </mxCell>
        <mxCell id="K0krH6eupAGIVUQJ-Xq6-42" value="Start" style="rounded=0;whiteSpace=wrap;html=1;fillColor=#CCCCFF;" parent="K0krH6eupAGIVUQJ-Xq6-40" vertex="1">
          <mxGeometry x="20" y="30" width="50" height="40" as="geometry" />
        </mxCell>
        <mxCell id="K0krH6eupAGIVUQJ-Xq6-43" value="Address" style="rounded=0;whiteSpace=wrap;html=1;fillColor=#66FFB3;" parent="K0krH6eupAGIVUQJ-Xq6-40" vertex="1">
          <mxGeometry x="70" y="30" width="50" height="40" as="geometry" />
        </mxCell>
        <mxCell id="K0krH6eupAGIVUQJ-Xq6-44" value="Data" style="rounded=0;whiteSpace=wrap;html=1;fillColor=#FFFF00;" parent="K0krH6eupAGIVUQJ-Xq6-40" vertex="1">
          <mxGeometry x="170" y="30" width="130" height="40" as="geometry" />
        </mxCell>
        <mxCell id="K0krH6eupAGIVUQJ-Xq6-45" value="LRC" style="rounded=0;whiteSpace=wrap;html=1;fillColor=#00CC66;" parent="K0krH6eupAGIVUQJ-Xq6-40" vertex="1">
          <mxGeometry x="300" y="30" width="70" height="40" as="geometry" />
        </mxCell>
        <mxCell id="K0krH6eupAGIVUQJ-Xq6-46" value="1 char" style="rounded=0;whiteSpace=wrap;html=1;" parent="K0krH6eupAGIVUQJ-Xq6-40" vertex="1">
          <mxGeometry x="20" y="70" width="50" height="30" as="geometry" />
        </mxCell>
        <mxCell id="K0krH6eupAGIVUQJ-Xq6-47" value="2 chars" style="rounded=0;whiteSpace=wrap;html=1;" parent="K0krH6eupAGIVUQJ-Xq6-40" vertex="1">
          <mxGeometry x="70" y="70" width="50" height="30" as="geometry" />
        </mxCell>
        <mxCell id="K0krH6eupAGIVUQJ-Xq6-48" value="0.2x252 char(s)" style="rounded=0;whiteSpace=wrap;html=1;" parent="K0krH6eupAGIVUQJ-Xq6-40" vertex="1">
          <mxGeometry x="170" y="70" width="130" height="30" as="geometry" />
        </mxCell>
        <mxCell id="K0krH6eupAGIVUQJ-Xq6-49" value="2 chars" style="rounded=0;whiteSpace=wrap;html=1;verticalAlign=top;" parent="K0krH6eupAGIVUQJ-Xq6-40" vertex="1">
          <mxGeometry x="300" y="70" width="70" height="30" as="geometry" />
        </mxCell>
        <mxCell id="K0krH6eupAGIVUQJ-Xq6-65" value="End" style="rounded=0;whiteSpace=wrap;html=1;fillColor=#00CC66;" parent="K0krH6eupAGIVUQJ-Xq6-40" vertex="1">
          <mxGeometry x="370" y="30" width="70" height="40" as="geometry" />
        </mxCell>
        <mxCell id="K0krH6eupAGIVUQJ-Xq6-66" value="&lt;font style=&quot;font-size: 12px;&quot;&gt;2 chars&lt;/font&gt;&lt;div style=&quot;&quot;&gt;&lt;font face=&quot;Times New Roman&quot; style=&quot;font-size: 12px;&quot;&gt;CR, LF&lt;/font&gt;&lt;/div&gt;" style="rounded=0;whiteSpace=wrap;html=1;verticalAlign=top;spacingTop=-6;" parent="K0krH6eupAGIVUQJ-Xq6-40" vertex="1">
          <mxGeometry x="370" y="70" width="70" height="30" as="geometry" />
        </mxCell>
        <mxCell id="K0krH6eupAGIVUQJ-Xq6-67" value="Function" style="rounded=0;whiteSpace=wrap;html=1;fillColor=#66FFB3;" parent="K0krH6eupAGIVUQJ-Xq6-40" vertex="1">
          <mxGeometry x="120" y="30" width="50" height="40" as="geometry" />
        </mxCell>
        <mxCell id="K0krH6eupAGIVUQJ-Xq6-68" value="2 chars" style="rounded=0;whiteSpace=wrap;html=1;" parent="K0krH6eupAGIVUQJ-Xq6-40" vertex="1">
          <mxGeometry x="120" y="70" width="50" height="30" as="geometry" />
        </mxCell>
        <mxCell id="K0krH6eupAGIVUQJ-Xq6-69" value="&lt;div style=&quot;text-align: left;&quot;&gt;&lt;font color=&quot;#ff261f&quot; style=&quot;background-color: initial;&quot;&gt;&lt;b style=&quot;&quot;&gt;&lt;font style=&quot;font-size: 12px;&quot;&gt;char&lt;/font&gt;&lt;/b&gt;&lt;span style=&quot;font-size: 8px;&quot;&gt; -&amp;nbsp;&lt;/span&gt;&lt;span style=&quot;font-size: 8px; background-color: initial;&quot;&gt;Hexadecimal, ASCII characters 0–9, A–F.&lt;/span&gt;&lt;/font&gt;&lt;/div&gt;&lt;div style=&quot;text-align: left;&quot;&gt;&lt;span style=&quot;background-color: initial; font-size: 8px;&quot;&gt;&lt;font color=&quot;#ff261f&quot;&gt;One hexadecimal character contains 4-bits of data within each ASCII character of the message&lt;/font&gt;&lt;/span&gt;&lt;/div&gt;" style="text;html=1;align=center;verticalAlign=middle;whiteSpace=wrap;rounded=0;" parent="K0krH6eupAGIVUQJ-Xq6-40" vertex="1">
          <mxGeometry x="10" y="110" width="360" height="30" as="geometry" />
        </mxCell>
        <mxCell id="K0krH6eupAGIVUQJ-Xq6-72" value="&lt;font style=&quot;font-size: 9px;&quot;&gt;Remark : this mode is less efficient than RTU since each byte needs two characters.&lt;/font&gt;" style="text;html=1;align=left;verticalAlign=middle;whiteSpace=wrap;rounded=0;" parent="1" vertex="1">
          <mxGeometry x="1440" y="80" width="460" height="17" as="geometry" />
        </mxCell>
        <mxCell id="K0krH6eupAGIVUQJ-Xq6-84" value="&lt;b&gt;&lt;font style=&quot;font-size: 20px;&quot;&gt;MODBUS over TCP/IP&lt;/font&gt;&lt;/b&gt;" style="rounded=0;whiteSpace=wrap;html=1;fillColor=none;align=left;verticalAlign=top;" parent="1" vertex="1">
          <mxGeometry x="1030" y="470" width="650" height="390" as="geometry" />
        </mxCell>
        <mxCell id="K0krH6eupAGIVUQJ-Xq6-85" value="" style="group" parent="1" vertex="1" connectable="0">
          <mxGeometry x="1050" y="510" width="600" height="230" as="geometry" />
        </mxCell>
        <mxCell id="K0krH6eupAGIVUQJ-Xq6-86" value="Request/Response over TCP/IP" style="rounded=0;whiteSpace=wrap;html=1;align=left;verticalAlign=top;" parent="K0krH6eupAGIVUQJ-Xq6-85" vertex="1">
          <mxGeometry width="600" height="160" as="geometry" />
        </mxCell>
        <mxCell id="K0krH6eupAGIVUQJ-Xq6-114" style="rounded=0;orthogonalLoop=1;jettySize=auto;html=1;exitX=0;exitY=1;exitDx=0;exitDy=0;entryX=0;entryY=0;entryDx=0;entryDy=0;endArrow=none;endFill=0;" parent="K0krH6eupAGIVUQJ-Xq6-85" source="K0krH6eupAGIVUQJ-Xq6-87" target="K0krH6eupAGIVUQJ-Xq6-106" edge="1">
          <mxGeometry relative="1" as="geometry" />
        </mxCell>
        <mxCell id="K0krH6eupAGIVUQJ-Xq6-87" value="MBAP Header" style="rounded=0;whiteSpace=wrap;html=1;fillColor=#CCCCFF;" parent="K0krH6eupAGIVUQJ-Xq6-85" vertex="1">
          <mxGeometry x="80" y="40" width="111.76" height="40" as="geometry" />
        </mxCell>
        <mxCell id="K0krH6eupAGIVUQJ-Xq6-115" style="rounded=0;orthogonalLoop=1;jettySize=auto;html=1;exitX=0;exitY=1;exitDx=0;exitDy=0;entryX=1;entryY=0;entryDx=0;entryDy=0;endArrow=none;endFill=0;" parent="K0krH6eupAGIVUQJ-Xq6-85" source="K0krH6eupAGIVUQJ-Xq6-88" target="K0krH6eupAGIVUQJ-Xq6-108" edge="1">
          <mxGeometry relative="1" as="geometry" />
        </mxCell>
        <mxCell id="K0krH6eupAGIVUQJ-Xq6-116" value="&lt;font style=&quot;font-size: 8px;&quot;&gt;1 byte&lt;/font&gt;" style="rounded=0;whiteSpace=wrap;html=1;fontSize=8;strokeColor=#000000;" parent="K0krH6eupAGIVUQJ-Xq6-85" vertex="1">
          <mxGeometry x="191.76" y="80" width="90" height="10" as="geometry" />
        </mxCell>
        <mxCell id="K0krH6eupAGIVUQJ-Xq6-88" value="Function Code" style="rounded=0;whiteSpace=wrap;html=1;fillColor=#00CC66;" parent="K0krH6eupAGIVUQJ-Xq6-85" vertex="1">
          <mxGeometry x="191.76" y="40" width="90" height="40" as="geometry" />
        </mxCell>
        <mxCell id="K0krH6eupAGIVUQJ-Xq6-89" value="Data" style="rounded=0;whiteSpace=wrap;html=1;fillColor=#00CC66;" parent="K0krH6eupAGIVUQJ-Xq6-85" vertex="1">
          <mxGeometry x="281.76" y="40" width="185" height="40" as="geometry" />
        </mxCell>
        <mxCell id="K0krH6eupAGIVUQJ-Xq6-106" value="&lt;font style=&quot;font-size: 8px;&quot;&gt;Transaction&lt;br style=&quot;font-size: 8px;&quot;&gt;Identifier &lt;/font&gt;" style="rounded=0;whiteSpace=wrap;html=1;fillColor=#ECDFF2;strokeColor=#9673a6;fontSize=8;" parent="K0krH6eupAGIVUQJ-Xq6-85" vertex="1">
          <mxGeometry x="9.999999999999993" y="100" width="45" height="20" as="geometry" />
        </mxCell>
        <mxCell id="K0krH6eupAGIVUQJ-Xq6-107" value="&lt;font style=&quot;font-size: 8px;&quot;&gt;Protocol Identifier&lt;/font&gt;" style="rounded=0;whiteSpace=wrap;html=1;fillColor=#ECDFF2;strokeColor=#9673a6;fontSize=8;" parent="K0krH6eupAGIVUQJ-Xq6-85" vertex="1">
          <mxGeometry x="55" y="100" width="45" height="20" as="geometry" />
        </mxCell>
        <mxCell id="K0krH6eupAGIVUQJ-Xq6-108" value="&lt;font style=&quot;font-size: 8px;&quot;&gt;Unit Identifier &lt;/font&gt;" style="rounded=0;whiteSpace=wrap;html=1;fillColor=#ECDFF2;strokeColor=#9673a6;fontSize=8;" parent="K0krH6eupAGIVUQJ-Xq6-85" vertex="1">
          <mxGeometry x="145" y="100" width="45" height="20" as="geometry" />
        </mxCell>
        <mxCell id="K0krH6eupAGIVUQJ-Xq6-109" value="&lt;font style=&quot;font-size: 8px;&quot;&gt;Length&lt;/font&gt;" style="rounded=0;whiteSpace=wrap;html=1;fillColor=#ECDFF2;strokeColor=#9673a6;fontSize=8;" parent="K0krH6eupAGIVUQJ-Xq6-85" vertex="1">
          <mxGeometry x="100" y="100" width="45" height="20" as="geometry" />
        </mxCell>
        <mxCell id="K0krH6eupAGIVUQJ-Xq6-110" value="&lt;span style=&quot;font-size: 8px;&quot;&gt;2 bytes&lt;/span&gt;" style="rounded=0;whiteSpace=wrap;html=1;fontSize=8;strokeColor=#8C8C8C;" parent="K0krH6eupAGIVUQJ-Xq6-85" vertex="1">
          <mxGeometry x="9.999999999999993" y="120" width="45" height="10" as="geometry" />
        </mxCell>
        <mxCell id="K0krH6eupAGIVUQJ-Xq6-111" value="&lt;span style=&quot;font-size: 8px;&quot;&gt;2 bytes&lt;/span&gt;" style="rounded=0;whiteSpace=wrap;html=1;fontSize=8;strokeColor=#8C8C8C;" parent="K0krH6eupAGIVUQJ-Xq6-85" vertex="1">
          <mxGeometry x="55" y="120" width="45" height="10" as="geometry" />
        </mxCell>
        <mxCell id="K0krH6eupAGIVUQJ-Xq6-112" value="&lt;span style=&quot;font-size: 8px;&quot;&gt;2 bytes&lt;/span&gt;" style="rounded=0;whiteSpace=wrap;html=1;fontSize=8;strokeColor=#8C8C8C;" parent="K0krH6eupAGIVUQJ-Xq6-85" vertex="1">
          <mxGeometry x="100" y="120" width="45" height="10" as="geometry" />
        </mxCell>
        <mxCell id="K0krH6eupAGIVUQJ-Xq6-113" value="&lt;font style=&quot;font-size: 8px;&quot;&gt;1 byte&lt;/font&gt;" style="rounded=0;whiteSpace=wrap;html=1;fontSize=8;strokeColor=#8C8C8C;" parent="K0krH6eupAGIVUQJ-Xq6-85" vertex="1">
          <mxGeometry x="145" y="120" width="45" height="10" as="geometry" />
        </mxCell>
        <mxCell id="K0krH6eupAGIVUQJ-Xq6-117" value="&lt;font style=&quot;font-size: 8px;&quot;&gt;0...252 byte(s)&lt;/font&gt;" style="rounded=0;whiteSpace=wrap;html=1;fontSize=8;strokeColor=#000000;" parent="K0krH6eupAGIVUQJ-Xq6-85" vertex="1">
          <mxGeometry x="281.76" y="80" width="185" height="10" as="geometry" />
        </mxCell>
        <mxCell id="K0krH6eupAGIVUQJ-Xq6-119" value="&lt;b&gt;2 ways of implementation:&lt;/b&gt;&lt;div&gt;&lt;ol&gt;&lt;li&gt;Explicit TCP connection management&lt;/li&gt;&lt;li&gt;Automatic TCP connection management (Recommended)&lt;/li&gt;&lt;/ol&gt;&lt;/div&gt;" style="rounded=1;whiteSpace=wrap;html=1;verticalAlign=top;align=left;" parent="1" vertex="1">
          <mxGeometry x="1050" y="687" width="357" height="70" as="geometry" />
        </mxCell>
        <mxCell id="K0krH6eupAGIVUQJ-Xq6-121" value="«interface»&lt;br&gt;&lt;b&gt;ModBus1.TCPClient&lt;/b&gt;" style="html=1;whiteSpace=wrap;" parent="1" vertex="1">
          <mxGeometry x="559.75" y="890" width="145" height="50" as="geometry" />
        </mxCell>
        <mxCell id="K0krH6eupAGIVUQJ-Xq6-122" value="«interface»&lt;br&gt;&lt;b&gt;ModBus1.TCPServer&lt;/b&gt;" style="html=1;whiteSpace=wrap;" parent="1" vertex="1">
          <mxGeometry x="559.75" y="990" width="145" height="50" as="geometry" />
        </mxCell>
        <mxCell id="K0krH6eupAGIVUQJ-Xq6-123" value="&lt;font style=&quot;font-size: 8px;&quot;&gt;SendData&lt;/font&gt;" style="text;html=1;align=center;verticalAlign=middle;whiteSpace=wrap;rounded=0;" parent="1" vertex="1">
          <mxGeometry x="779.75" y="902" width="60" height="16" as="geometry" />
        </mxCell>
        <mxCell id="K0krH6eupAGIVUQJ-Xq6-124" value="" style="html=1;verticalAlign=bottom;labelBackgroundColor=none;endArrow=halfCircle;endFill=0;endSize=2;rounded=0;" parent="1" edge="1">
          <mxGeometry width="160" relative="1" as="geometry">
            <mxPoint x="704.75" y="902" as="sourcePoint" />
            <mxPoint x="804.75" y="902" as="targetPoint" />
          </mxGeometry>
        </mxCell>
        <mxCell id="K0krH6eupAGIVUQJ-Xq6-125" value="" style="html=1;verticalAlign=bottom;labelBackgroundColor=none;endArrow=halfCircle;endFill=0;endSize=2;rounded=0;" parent="1" edge="1">
          <mxGeometry width="160" relative="1" as="geometry">
            <mxPoint x="704.75" y="930" as="sourcePoint" />
            <mxPoint x="804.75" y="930" as="targetPoint" />
          </mxGeometry>
        </mxCell>
        <mxCell id="K0krH6eupAGIVUQJ-Xq6-126" value="&lt;font style=&quot;font-size: 8px;&quot;&gt;RecvData&lt;/font&gt;" style="text;html=1;align=center;verticalAlign=middle;whiteSpace=wrap;rounded=0;" parent="1" vertex="1">
          <mxGeometry x="779.75" y="930" width="60" height="16" as="geometry" />
        </mxCell>
        <mxCell id="K0krH6eupAGIVUQJ-Xq6-131" value="" style="html=1;verticalAlign=bottom;labelBackgroundColor=none;endArrow=halfCircle;endFill=0;endSize=2;rounded=0;" parent="1" edge="1">
          <mxGeometry width="160" relative="1" as="geometry">
            <mxPoint x="704.75" y="1002" as="sourcePoint" />
            <mxPoint x="804.75" y="1002" as="targetPoint" />
          </mxGeometry>
        </mxCell>
        <mxCell id="K0krH6eupAGIVUQJ-Xq6-132" value="&lt;font style=&quot;font-size: 8px;&quot;&gt;SendData&lt;/font&gt;" style="text;html=1;align=center;verticalAlign=middle;whiteSpace=wrap;rounded=0;" parent="1" vertex="1">
          <mxGeometry x="779.75" y="1002" width="60" height="16" as="geometry" />
        </mxCell>
        <mxCell id="K0krH6eupAGIVUQJ-Xq6-133" value="" style="html=1;verticalAlign=bottom;labelBackgroundColor=none;endArrow=halfCircle;endFill=0;endSize=2;rounded=0;" parent="1" edge="1">
          <mxGeometry width="160" relative="1" as="geometry">
            <mxPoint x="704.75" y="1030" as="sourcePoint" />
            <mxPoint x="804.75" y="1030" as="targetPoint" />
          </mxGeometry>
        </mxCell>
        <mxCell id="K0krH6eupAGIVUQJ-Xq6-134" value="&lt;font style=&quot;font-size: 8px;&quot;&gt;RecvData&lt;/font&gt;" style="text;html=1;align=center;verticalAlign=middle;whiteSpace=wrap;rounded=0;" parent="1" vertex="1">
          <mxGeometry x="779.75" y="1030" width="60" height="16" as="geometry" />
        </mxCell>
        <mxCell id="K0krH6eupAGIVUQJ-Xq6-139" value="" style="group" parent="1" vertex="1" connectable="0">
          <mxGeometry x="400.75" y="809" width="140.00000000000023" height="44" as="geometry" />
        </mxCell>
        <mxCell id="K0krH6eupAGIVUQJ-Xq6-135" value="" style="html=1;verticalAlign=bottom;labelBackgroundColor=none;endArrow=oval;endFill=0;endSize=8;rounded=0;" parent="K0krH6eupAGIVUQJ-Xq6-139" edge="1">
          <mxGeometry width="160" relative="1" as="geometry">
            <mxPoint x="140.00000000000023" y="0.3096551724137271" as="sourcePoint" />
            <mxPoint x="30.000000000000227" y="0.3096551724137271" as="targetPoint" />
          </mxGeometry>
        </mxCell>
        <mxCell id="K0krH6eupAGIVUQJ-Xq6-136" value="" style="html=1;verticalAlign=bottom;labelBackgroundColor=none;endArrow=oval;endFill=0;endSize=8;rounded=0;" parent="K0krH6eupAGIVUQJ-Xq6-139" edge="1">
          <mxGeometry width="160" relative="1" as="geometry">
            <mxPoint x="140.00000000000023" y="28.309655172413727" as="sourcePoint" />
            <mxPoint x="30.000000000000227" y="28.309655172413727" as="targetPoint" />
          </mxGeometry>
        </mxCell>
        <mxCell id="K0krH6eupAGIVUQJ-Xq6-137" value="&lt;font style=&quot;font-size: 8px;&quot;&gt;SendData&lt;/font&gt;" style="text;html=1;align=center;verticalAlign=middle;whiteSpace=wrap;rounded=0;" parent="K0krH6eupAGIVUQJ-Xq6-139" vertex="1">
          <mxGeometry width="60" height="16" as="geometry" />
        </mxCell>
        <mxCell id="K0krH6eupAGIVUQJ-Xq6-138" value="&lt;span style=&quot;font-size: 8px;&quot;&gt;RecvData&lt;/span&gt;" style="text;html=1;align=center;verticalAlign=middle;whiteSpace=wrap;rounded=0;" parent="K0krH6eupAGIVUQJ-Xq6-139" vertex="1">
          <mxGeometry y="28" width="60" height="16" as="geometry" />
        </mxCell>
        <mxCell id="K0krH6eupAGIVUQJ-Xq6-140" value="" style="group" parent="1" vertex="1" connectable="0">
          <mxGeometry x="418.75" y="900" width="140.00000000000023" height="44" as="geometry" />
        </mxCell>
        <mxCell id="K0krH6eupAGIVUQJ-Xq6-141" value="" style="html=1;verticalAlign=bottom;labelBackgroundColor=none;endArrow=oval;endFill=0;endSize=8;rounded=0;" parent="K0krH6eupAGIVUQJ-Xq6-140" edge="1">
          <mxGeometry width="160" relative="1" as="geometry">
            <mxPoint x="140.00000000000023" y="0.3096551724137271" as="sourcePoint" />
            <mxPoint x="30.000000000000227" y="0.3096551724137271" as="targetPoint" />
          </mxGeometry>
        </mxCell>
        <mxCell id="K0krH6eupAGIVUQJ-Xq6-142" value="" style="html=1;verticalAlign=bottom;labelBackgroundColor=none;endArrow=oval;endFill=0;endSize=8;rounded=0;" parent="K0krH6eupAGIVUQJ-Xq6-140" edge="1">
          <mxGeometry width="160" relative="1" as="geometry">
            <mxPoint x="140.00000000000023" y="28.309655172413727" as="sourcePoint" />
            <mxPoint x="30.000000000000227" y="28.309655172413727" as="targetPoint" />
          </mxGeometry>
        </mxCell>
        <mxCell id="K0krH6eupAGIVUQJ-Xq6-143" value="&lt;span style=&quot;font-size: 8px;&quot;&gt;RecvResponse&lt;/span&gt;" style="text;html=1;align=center;verticalAlign=middle;whiteSpace=wrap;rounded=0;" parent="K0krH6eupAGIVUQJ-Xq6-140" vertex="1">
          <mxGeometry width="60" height="16" as="geometry" />
        </mxCell>
        <mxCell id="K0krH6eupAGIVUQJ-Xq6-144" value="&lt;span style=&quot;font-size: 8px;&quot;&gt;RecvMessage&lt;/span&gt;" style="text;html=1;align=center;verticalAlign=middle;whiteSpace=wrap;rounded=0;" parent="K0krH6eupAGIVUQJ-Xq6-140" vertex="1">
          <mxGeometry y="28" width="60" height="16" as="geometry" />
        </mxCell>
        <mxCell id="K0krH6eupAGIVUQJ-Xq6-154" value="" style="group" parent="1" vertex="1" connectable="0">
          <mxGeometry x="419.75" y="1008" width="140" height="10.18181818181813" as="geometry" />
        </mxCell>
        <mxCell id="K0krH6eupAGIVUQJ-Xq6-148" value="" style="html=1;verticalAlign=bottom;labelBackgroundColor=none;endArrow=oval;endFill=0;endSize=8;rounded=0;" parent="K0krH6eupAGIVUQJ-Xq6-154" edge="1">
          <mxGeometry width="160" relative="1" as="geometry">
            <mxPoint x="140" y="0.19705329153600815" as="sourcePoint" />
            <mxPoint x="30.00000000000017" y="0.19705329153600815" as="targetPoint" />
          </mxGeometry>
        </mxCell>
        <mxCell id="K0krH6eupAGIVUQJ-Xq6-150" value="&lt;span style=&quot;font-size: 8px;&quot;&gt;RecvMessage&lt;/span&gt;" style="text;html=1;align=center;verticalAlign=middle;whiteSpace=wrap;rounded=0;" parent="K0krH6eupAGIVUQJ-Xq6-154" vertex="1">
          <mxGeometry y="3" width="59.9999999999999" height="10.181818181818182" as="geometry" />
        </mxCell>
        <mxCell id="K0krH6eupAGIVUQJ-Xq6-156" value="" style="group" parent="1" vertex="1" connectable="0">
          <mxGeometry x="419.75" y="1031" width="140" height="10.18181818181813" as="geometry" />
        </mxCell>
        <mxCell id="K0krH6eupAGIVUQJ-Xq6-157" value="" style="html=1;verticalAlign=bottom;labelBackgroundColor=none;endArrow=oval;endFill=0;endSize=8;rounded=0;" parent="K0krH6eupAGIVUQJ-Xq6-156" edge="1">
          <mxGeometry width="160" relative="1" as="geometry">
            <mxPoint x="140" y="0.19705329153600815" as="sourcePoint" />
            <mxPoint x="30.00000000000017" y="0.19705329153600815" as="targetPoint" />
          </mxGeometry>
        </mxCell>
        <mxCell id="K0krH6eupAGIVUQJ-Xq6-158" value="&lt;span style=&quot;font-size: 8px;&quot;&gt;BuildResponse&lt;/span&gt;" style="text;html=1;align=center;verticalAlign=middle;whiteSpace=wrap;rounded=0;" parent="K0krH6eupAGIVUQJ-Xq6-156" vertex="1">
          <mxGeometry y="3" width="59.9999999999999" height="10.181818181818182" as="geometry" />
        </mxCell>
        <mxCell id="K0krH6eupAGIVUQJ-Xq6-161" value="" style="html=1;verticalAlign=bottom;labelBackgroundColor=none;endArrow=halfCircle;endFill=0;endSize=2;rounded=0;" parent="1" edge="1">
          <mxGeometry width="160" relative="1" as="geometry">
            <mxPoint x="675.5" y="449" as="sourcePoint" />
            <mxPoint x="775.5" y="449" as="targetPoint" />
          </mxGeometry>
        </mxCell>
        <mxCell id="K0krH6eupAGIVUQJ-Xq6-162" value="«interface»&lt;br&gt;&lt;b&gt;ModBus1.SL.RTU&lt;/b&gt;" style="html=1;whiteSpace=wrap;" parent="1" vertex="1">
          <mxGeometry x="565.5" y="438" width="110" height="50" as="geometry" />
        </mxCell>
        <mxCell id="K0krH6eupAGIVUQJ-Xq6-163" value="&lt;span style=&quot;font-size: 8px;&quot;&gt;EmitMessage&lt;/span&gt;" style="text;html=1;align=center;verticalAlign=middle;whiteSpace=wrap;rounded=0;" parent="1" vertex="1">
          <mxGeometry x="750.5" y="449" width="60" height="16" as="geometry" />
        </mxCell>
        <mxCell id="K0krH6eupAGIVUQJ-Xq6-164" value="" style="html=1;verticalAlign=bottom;labelBackgroundColor=none;endArrow=halfCircle;endFill=0;endSize=2;rounded=0;" parent="1" edge="1">
          <mxGeometry width="160" relative="1" as="geometry">
            <mxPoint x="675.5" y="477" as="sourcePoint" />
            <mxPoint x="775.5" y="477" as="targetPoint" />
          </mxGeometry>
        </mxCell>
        <mxCell id="K0krH6eupAGIVUQJ-Xq6-165" value="&lt;span style=&quot;font-size: 8px;&quot;&gt;RecvMessage&lt;/span&gt;" style="text;html=1;align=center;verticalAlign=middle;whiteSpace=wrap;rounded=0;" parent="1" vertex="1">
          <mxGeometry x="750.5" y="477" width="60" height="16" as="geometry" />
        </mxCell>
        <mxCell id="K0krH6eupAGIVUQJ-Xq6-166" value="" style="html=1;verticalAlign=bottom;labelBackgroundColor=none;endArrow=oval;endFill=0;endSize=8;rounded=0;" parent="1" edge="1">
          <mxGeometry width="160" relative="1" as="geometry">
            <mxPoint x="565.5000000000002" y="449.3096551724137" as="sourcePoint" />
            <mxPoint x="455.5000000000002" y="449.3096551724137" as="targetPoint" />
          </mxGeometry>
        </mxCell>
        <mxCell id="K0krH6eupAGIVUQJ-Xq6-167" value="&lt;font style=&quot;font-size: 8px;&quot;&gt;EmitMessage&lt;/font&gt;" style="text;html=1;align=center;verticalAlign=middle;whiteSpace=wrap;rounded=0;" parent="1" vertex="1">
          <mxGeometry x="425.5" y="449" width="60" height="16" as="geometry" />
        </mxCell>
        <mxCell id="K0krH6eupAGIVUQJ-Xq6-168" value="" style="html=1;verticalAlign=bottom;labelBackgroundColor=none;endArrow=oval;endFill=0;endSize=8;rounded=0;" parent="1" edge="1">
          <mxGeometry width="160" relative="1" as="geometry">
            <mxPoint x="565.5000000000002" y="477.3096551724137" as="sourcePoint" />
            <mxPoint x="455.5000000000002" y="477.3096551724137" as="targetPoint" />
          </mxGeometry>
        </mxCell>
        <mxCell id="K0krH6eupAGIVUQJ-Xq6-169" value="&lt;font style=&quot;font-size: 8px;&quot;&gt;RecvMessage&lt;/font&gt;" style="text;html=1;align=center;verticalAlign=middle;whiteSpace=wrap;rounded=0;" parent="1" vertex="1">
          <mxGeometry x="425.5" y="477" width="60" height="16" as="geometry" />
        </mxCell>
        <mxCell id="K0krH6eupAGIVUQJ-Xq6-171" value="&lt;font style=&quot;font-size: 8px;&quot;&gt;RxCalcCRC&lt;/font&gt;" style="text;html=1;align=center;verticalAlign=middle;whiteSpace=wrap;rounded=0;" parent="1" vertex="1">
          <mxGeometry x="478.5" y="500" width="60" height="16" as="geometry" />
        </mxCell>
        <mxCell id="K0krH6eupAGIVUQJ-Xq6-177" value="&lt;span style=&quot;font-size: 8px;&quot;&gt;TxCalcCRC&lt;/span&gt;" style="text;html=1;align=center;verticalAlign=middle;whiteSpace=wrap;rounded=0;" parent="1" vertex="1">
          <mxGeometry x="478.5" y="410" width="60" height="16" as="geometry" />
        </mxCell>
        <mxCell id="K0krH6eupAGIVUQJ-Xq6-183" value="" style="whiteSpace=wrap;html=1;aspect=fixed;" parent="1" vertex="1">
          <mxGeometry x="559.5" y="445" width="10" height="10" as="geometry" />
        </mxCell>
        <mxCell id="K0krH6eupAGIVUQJ-Xq6-185" value="" style="whiteSpace=wrap;html=1;aspect=fixed;" parent="1" vertex="1">
          <mxGeometry x="559.5" y="472" width="10" height="10" as="geometry" />
        </mxCell>
        <mxCell id="K0krH6eupAGIVUQJ-Xq6-186" value="" style="html=1;verticalAlign=bottom;labelBackgroundColor=none;endArrow=halfCircle;endFill=0;endSize=2;rounded=0;" parent="1" edge="1">
          <mxGeometry width="160" relative="1" as="geometry">
            <mxPoint x="670" y="589" as="sourcePoint" />
            <mxPoint x="770" y="589" as="targetPoint" />
          </mxGeometry>
        </mxCell>
        <mxCell id="K0krH6eupAGIVUQJ-Xq6-187" value="&lt;font style=&quot;font-size: 10px;&quot;&gt;«&lt;span style=&quot;font-size: 12px;&quot;&gt;interface&lt;/span&gt;»&lt;br&gt;&lt;b&gt;ModBus1.SL.ASCII&lt;/b&gt;&lt;/font&gt;" style="html=1;whiteSpace=wrap;" parent="1" vertex="1">
          <mxGeometry x="560" y="578" width="110" height="50" as="geometry" />
        </mxCell>
        <mxCell id="K0krH6eupAGIVUQJ-Xq6-188" value="&lt;span style=&quot;font-size: 8px;&quot;&gt;EmitMessage&lt;/span&gt;" style="text;html=1;align=center;verticalAlign=middle;whiteSpace=wrap;rounded=0;" parent="1" vertex="1">
          <mxGeometry x="745" y="589" width="60" height="16" as="geometry" />
        </mxCell>
        <mxCell id="K0krH6eupAGIVUQJ-Xq6-189" value="" style="html=1;verticalAlign=bottom;labelBackgroundColor=none;endArrow=halfCircle;endFill=0;endSize=2;rounded=0;" parent="1" edge="1">
          <mxGeometry width="160" relative="1" as="geometry">
            <mxPoint x="670" y="617" as="sourcePoint" />
            <mxPoint x="770" y="617" as="targetPoint" />
          </mxGeometry>
        </mxCell>
        <mxCell id="K0krH6eupAGIVUQJ-Xq6-190" value="&lt;span style=&quot;font-size: 8px;&quot;&gt;RecvMessage&lt;/span&gt;" style="text;html=1;align=center;verticalAlign=middle;whiteSpace=wrap;rounded=0;" parent="1" vertex="1">
          <mxGeometry x="745" y="617" width="60" height="16" as="geometry" />
        </mxCell>
        <mxCell id="K0krH6eupAGIVUQJ-Xq6-191" value="" style="html=1;verticalAlign=bottom;labelBackgroundColor=none;endArrow=oval;endFill=0;endSize=8;rounded=0;" parent="1" edge="1">
          <mxGeometry width="160" relative="1" as="geometry">
            <mxPoint x="560.0000000000002" y="589.3096551724137" as="sourcePoint" />
            <mxPoint x="450.0000000000002" y="589.3096551724137" as="targetPoint" />
          </mxGeometry>
        </mxCell>
        <mxCell id="K0krH6eupAGIVUQJ-Xq6-192" value="&lt;font style=&quot;font-size: 8px;&quot;&gt;EmitMessage&lt;/font&gt;" style="text;html=1;align=center;verticalAlign=middle;whiteSpace=wrap;rounded=0;" parent="1" vertex="1">
          <mxGeometry x="420" y="589" width="60" height="16" as="geometry" />
        </mxCell>
        <mxCell id="K0krH6eupAGIVUQJ-Xq6-193" value="" style="html=1;verticalAlign=bottom;labelBackgroundColor=none;endArrow=oval;endFill=0;endSize=8;rounded=0;" parent="1" edge="1">
          <mxGeometry width="160" relative="1" as="geometry">
            <mxPoint x="560.0000000000002" y="617.3096551724137" as="sourcePoint" />
            <mxPoint x="450.0000000000002" y="617.3096551724137" as="targetPoint" />
          </mxGeometry>
        </mxCell>
        <mxCell id="K0krH6eupAGIVUQJ-Xq6-194" value="&lt;font style=&quot;font-size: 8px;&quot;&gt;RecvMessage&lt;/font&gt;" style="text;html=1;align=center;verticalAlign=middle;whiteSpace=wrap;rounded=0;" parent="1" vertex="1">
          <mxGeometry x="420" y="617" width="60" height="16" as="geometry" />
        </mxCell>
        <mxCell id="K0krH6eupAGIVUQJ-Xq6-196" value="&lt;font style=&quot;font-size: 8px;&quot;&gt;RxCalcLRC&lt;/font&gt;" style="text;html=1;align=center;verticalAlign=middle;whiteSpace=wrap;rounded=0;" parent="1" vertex="1">
          <mxGeometry x="470" y="636" width="60" height="16" as="geometry" />
        </mxCell>
        <mxCell id="K0krH6eupAGIVUQJ-Xq6-197" value="" style="html=1;verticalAlign=bottom;labelBackgroundColor=none;endArrow=oval;endFill=0;endSize=8;rounded=0;exitX=0.273;exitY=1.01;exitDx=0;exitDy=0;exitPerimeter=0;entryX=0.305;entryY=0.682;entryDx=0;entryDy=0;entryPerimeter=0;" parent="1" target="K0krH6eupAGIVUQJ-Xq6-160" edge="1">
          <mxGeometry width="160" relative="1" as="geometry">
            <mxPoint x="590" y="578" as="sourcePoint" />
            <mxPoint x="500" y="550" as="targetPoint" />
            <Array as="points">
              <mxPoint x="590" y="570" />
            </Array>
          </mxGeometry>
        </mxCell>
        <mxCell id="K0krH6eupAGIVUQJ-Xq6-198" value="&lt;span style=&quot;font-size: 8px;&quot;&gt;TxCalcLRC&lt;/span&gt;" style="text;html=1;align=center;verticalAlign=middle;whiteSpace=wrap;rounded=0;" parent="1" vertex="1">
          <mxGeometry x="470" y="550" width="60" height="16" as="geometry" />
        </mxCell>
        <mxCell id="K0krH6eupAGIVUQJ-Xq6-199" value="" style="whiteSpace=wrap;html=1;aspect=fixed;" parent="1" vertex="1">
          <mxGeometry x="554" y="585" width="10" height="10" as="geometry" />
        </mxCell>
        <mxCell id="K0krH6eupAGIVUQJ-Xq6-200" value="" style="whiteSpace=wrap;html=1;aspect=fixed;" parent="1" vertex="1">
          <mxGeometry x="554" y="612" width="10" height="10" as="geometry" />
        </mxCell>
        <mxCell id="K0krH6eupAGIVUQJ-Xq6-203" value="" style="html=1;verticalAlign=bottom;labelBackgroundColor=none;endArrow=oval;endFill=0;endSize=8;rounded=0;exitX=0.273;exitY=1.01;exitDx=0;exitDy=0;exitPerimeter=0;entryX=0.305;entryY=0.682;entryDx=0;entryDy=0;entryPerimeter=0;" parent="1" edge="1">
          <mxGeometry width="160" relative="1" as="geometry">
            <mxPoint x="590" y="628" as="sourcePoint" />
            <mxPoint x="500" y="636" as="targetPoint" />
            <Array as="points">
              <mxPoint x="590" y="636" />
            </Array>
          </mxGeometry>
        </mxCell>
        <mxCell id="K0krH6eupAGIVUQJ-Xq6-204" value="" style="html=1;verticalAlign=bottom;labelBackgroundColor=none;endArrow=oval;endFill=0;endSize=8;rounded=0;exitX=0.273;exitY=1.01;exitDx=0;exitDy=0;exitPerimeter=0;entryX=0.305;entryY=0.682;entryDx=0;entryDy=0;entryPerimeter=0;" parent="1" edge="1">
          <mxGeometry width="160" relative="1" as="geometry">
            <mxPoint x="595" y="488" as="sourcePoint" />
            <mxPoint x="505" y="496" as="targetPoint" />
            <Array as="points">
              <mxPoint x="595" y="496" />
            </Array>
          </mxGeometry>
        </mxCell>
        <mxCell id="K0krH6eupAGIVUQJ-Xq6-205" value="" style="html=1;verticalAlign=bottom;labelBackgroundColor=none;endArrow=oval;endFill=0;endSize=8;rounded=0;exitX=0.273;exitY=1.01;exitDx=0;exitDy=0;exitPerimeter=0;entryX=0.305;entryY=0.682;entryDx=0;entryDy=0;entryPerimeter=0;" parent="1" edge="1">
          <mxGeometry width="160" relative="1" as="geometry">
            <mxPoint x="595" y="437.9999999999998" as="sourcePoint" />
            <mxPoint x="505" y="429.9999999999998" as="targetPoint" />
            <Array as="points">
              <mxPoint x="595" y="429.9999999999998" />
            </Array>
          </mxGeometry>
        </mxCell>
        <mxCell id="K0krH6eupAGIVUQJ-Xq6-206" value="" style="html=1;verticalAlign=bottom;labelBackgroundColor=none;endArrow=oval;endFill=0;endSize=8;rounded=0;exitX=0.273;exitY=1.01;exitDx=0;exitDy=0;exitPerimeter=0;entryX=0.305;entryY=0.682;entryDx=0;entryDy=0;entryPerimeter=0;" parent="1" edge="1">
          <mxGeometry width="160" relative="1" as="geometry">
            <mxPoint x="564" y="797" as="sourcePoint" />
            <mxPoint x="474" y="789" as="targetPoint" />
            <Array as="points">
              <mxPoint x="564" y="789" />
            </Array>
          </mxGeometry>
        </mxCell>
        <mxCell id="K0krH6eupAGIVUQJ-Xq6-207" value="&lt;span style=&quot;font-size: 8px;&quot;&gt;Start&lt;/span&gt;" style="text;html=1;align=center;verticalAlign=middle;whiteSpace=wrap;rounded=0;" parent="1" vertex="1">
          <mxGeometry x="446.75" y="770" width="60" height="16" as="geometry" />
        </mxCell>
        <mxCell id="K0krH6eupAGIVUQJ-Xq6-208" value="" style="html=1;verticalAlign=bottom;labelBackgroundColor=none;endArrow=oval;endFill=0;endSize=8;rounded=0;exitX=0.273;exitY=1.01;exitDx=0;exitDy=0;exitPerimeter=0;entryX=0.305;entryY=0.682;entryDx=0;entryDy=0;entryPerimeter=0;" parent="1" edge="1">
          <mxGeometry width="160" relative="1" as="geometry">
            <mxPoint x="564" y="847" as="sourcePoint" />
            <mxPoint x="474" y="855" as="targetPoint" />
            <Array as="points">
              <mxPoint x="564" y="855" />
            </Array>
          </mxGeometry>
        </mxCell>
        <mxCell id="K0krH6eupAGIVUQJ-Xq6-209" value="&lt;font style=&quot;font-size: 8px;&quot;&gt;Stop&lt;/font&gt;" style="text;html=1;align=center;verticalAlign=middle;whiteSpace=wrap;rounded=0;" parent="1" vertex="1">
          <mxGeometry x="444" y="855" width="60" height="16" as="geometry" />
        </mxCell>
        <mxCell id="K0krH6eupAGIVUQJ-Xq6-210" value="" style="html=1;verticalAlign=bottom;labelBackgroundColor=none;endArrow=oval;endFill=0;endSize=8;rounded=0;exitX=0.273;exitY=1.01;exitDx=0;exitDy=0;exitPerimeter=0;entryX=0.305;entryY=0.682;entryDx=0;entryDy=0;entryPerimeter=0;" parent="1" edge="1">
          <mxGeometry width="160" relative="1" as="geometry">
            <mxPoint x="569.5" y="890.5" as="sourcePoint" />
            <mxPoint x="479.5" y="882.5" as="targetPoint" />
            <Array as="points">
              <mxPoint x="569.5" y="882.5" />
            </Array>
          </mxGeometry>
        </mxCell>
        <mxCell id="K0krH6eupAGIVUQJ-Xq6-211" value="&lt;font style=&quot;font-size: 7px;&quot;&gt;Start (connection request)&lt;/font&gt;" style="text;html=1;align=center;verticalAlign=middle;whiteSpace=wrap;rounded=0;" parent="1" vertex="1">
          <mxGeometry x="452.25" y="865.5" width="107.75" height="16" as="geometry" />
        </mxCell>
        <mxCell id="K0krH6eupAGIVUQJ-Xq6-212" value="" style="html=1;verticalAlign=bottom;labelBackgroundColor=none;endArrow=oval;endFill=0;endSize=8;rounded=0;exitX=0.273;exitY=1.01;exitDx=0;exitDy=0;exitPerimeter=0;entryX=0.305;entryY=0.682;entryDx=0;entryDy=0;entryPerimeter=0;" parent="1" edge="1">
          <mxGeometry width="160" relative="1" as="geometry">
            <mxPoint x="569.5" y="940.5" as="sourcePoint" />
            <mxPoint x="479.5" y="948.5" as="targetPoint" />
            <Array as="points">
              <mxPoint x="569.5" y="948.5" />
            </Array>
          </mxGeometry>
        </mxCell>
        <mxCell id="K0krH6eupAGIVUQJ-Xq6-213" value="&lt;font style=&quot;font-size: 7px;&quot;&gt;Stop (close connection)&lt;/font&gt;" style="text;html=1;align=center;verticalAlign=middle;whiteSpace=wrap;rounded=0;" parent="1" vertex="1">
          <mxGeometry x="449.5" y="948.5" width="100.5" height="16" as="geometry" />
        </mxCell>
      </root>
    </mxGraphModel>
  </diagram>
</mxfile>
